<svg width="140.000000" height="21.000000" viewBox="0 0 140 21" fill="none" xmlns="http://www.w3.org/2000/svg" xmlns:xlink="http://www.w3.org/1999/xlink">
	<desc>
			Created with Pixso.
	</desc>
	<defs>
		<clipPath id="clip20_307">
			<rect id="bi:star-fill" width="20.000000" height="20.000000" transform="translate(90.000000 0.208008)" fill="white" fill-opacity="0"/>
		</clipPath>
		<clipPath id="clip20_310">
			<rect id="bi:star-fill" width="20.000000" height="20.000000" transform="translate(120.000000 0.000000)" fill="white" fill-opacity="0"/>
		</clipPath>
		<clipPath id="clip20_313">
			<rect id="bi:star-fill" width="20.000000" height="20.000000" transform="translate(60.000000 0.208008)" fill="white" fill-opacity="0"/>
		</clipPath>
		<clipPath id="clip20_316">
			<rect id="bi:star-fill" width="20.000000" height="20.000000" transform="translate(30.000000 0.208008)" fill="white" fill-opacity="0"/>
		</clipPath>
		<clipPath id="clip20_319">
			<rect id="bi:star-fill" width="20.000000" height="20.000000" transform="translate(0.000000 0.208008)" fill="white" fill-opacity="0"/>
		</clipPath>
	</defs>
	<rect id="bi:star-fill" width="20.000000" height="20.000000" transform="translate(90.000000 0.208008)" fill="#FFFFFF" fill-opacity="0"/>
	<g clip-path="url(#clip20_307)">
		<path id="Vector" d="M94.51 19.51C94.03 19.75 93.48 19.32 93.58 18.77L94.62 12.85L90.21 8.66C89.8 8.27 90.01 7.55 90.57 7.47L96.69 6.6L99.42 1.19C99.66 0.71 100.33 0.71 100.58 1.19L103.31 6.6L109.43 7.47C109.98 7.55 110.19 8.27 109.78 8.66L105.38 12.85L106.42 18.77C106.51 19.32 105.97 19.75 105.48 19.51L100 16.69L94.51 19.51L94.51 19.51Z" fill="#BABABA" fill-opacity="1.000000" fill-rule="nonzero"/>
	</g>
	<rect id="bi:star-fill" width="20.000000" height="20.000000" transform="translate(120.000000 0.000000)" fill="#FFFFFF" fill-opacity="0"/>
	<g clip-path="url(#clip20_310)">
		<path id="Vector" d="M124.51 19.3C124.03 19.55 123.48 19.11 123.58 18.56L124.62 12.65L120.21 8.45C119.8 8.06 120.01 7.34 120.57 7.26L126.69 6.39L129.42 0.99C129.66 0.5 130.33 0.5 130.58 0.99L133.31 6.39L139.43 7.26C139.98 7.34 140.19 8.06 139.78 8.45L135.38 12.65L136.42 18.56C136.51 19.11 135.97 19.55 135.48 19.3L130 16.48L124.51 19.3L124.51 19.3Z" fill="#BABABA" fill-opacity="1.000000" fill-rule="nonzero"/>
	</g>
	<rect id="bi:star-fill" width="20.000000" height="20.000000" transform="translate(60.000000 0.208008)" fill="#FFFFFF" fill-opacity="0"/>
	<g clip-path="url(#clip20_313)">
		<path id="Vector" d="M64.51 19.51C64.03 19.75 63.48 19.32 63.58 18.77L64.62 12.85L60.21 8.66C59.8 8.27 60.01 7.55 60.57 7.47L66.69 6.6L69.42 1.19C69.66 0.71 70.33 0.71 70.58 1.19L73.31 6.6L79.43 7.47C79.98 7.55 80.19 8.27 79.78 8.66L75.38 12.85L76.42 18.77C76.51 19.32 75.97 19.75 75.48 19.51L70 16.69L64.51 19.51L64.51 19.51Z" fill="#FF595A" fill-opacity="1.000000" fill-rule="nonzero"/>
	</g>
	<rect id="bi:star-fill" width="20.000000" height="20.000000" transform="translate(30.000000 0.208008)" fill="#FFFFFF" fill-opacity="0"/>
	<g clip-path="url(#clip20_316)">
		<path id="Vector" d="M34.51 19.51C34.03 19.75 33.48 19.32 33.58 18.77L34.62 12.85L30.21 8.66C29.8 8.27 30.01 7.55 30.57 7.47L36.69 6.6L39.42 1.19C39.66 0.71 40.33 0.71 40.58 1.19L43.31 6.6L49.43 7.47C49.98 7.55 50.19 8.27 49.78 8.66L45.38 12.85L46.42 18.77C46.51 19.32 45.97 19.75 45.48 19.51L40 16.69L34.51 19.51L34.51 19.51Z" fill="#FF595A" fill-opacity="1.000000" fill-rule="nonzero"/>
	</g>
	<rect id="bi:star-fill" width="20.000000" height="20.000000" transform="translate(0.000000 0.208008)" fill="#FFFFFF" fill-opacity="0"/>
	<g clip-path="url(#clip20_319)">
		<path id="Vector" d="M4.51 19.51C4.03 19.75 3.48 19.32 3.58 18.77L4.62 12.85L0.21 8.66C-0.2 8.27 0.01 7.55 0.57 7.47L6.69 6.6L9.42 1.19C9.66 0.71 10.33 0.71 10.58 1.19L13.31 6.6L19.43 7.47C19.98 7.55 20.19 8.27 19.78 8.66L15.38 12.85L16.42 18.77C16.51 19.32 15.97 19.75 15.48 19.51L10 16.69L4.51 19.51L4.51 19.51Z" fill="#FF595A" fill-opacity="1.000000" fill-rule="nonzero"/>
	</g>
</svg>
